<svg width="536.25" height="89.84908228836203" viewBox="0 0 369.6666666666667 61.937922149366585" class="looka-1j8o68f"><defs id="SvgjsDefs1561"></defs><g id="SvgjsG1562" featurekey="UqkkrJ-0" transform="matrix(1.2626262626262625,0,0,1.2626262626262625,0,3)" fill="#111111"><path xmlns="http://www.w3.org/2000/svg" fill="#111111" fill-rule="evenodd" d="M449.712663,93 L443.364293,87.7719302 C443.133629,87.5819717 443,87.2988145 443,87 L443,76 C443,75.6750768 443.157865,75.3704099 443.423317,75.1830321 L451.923317,69.1830321 C452.092034,69.063938 452.293484,69 452.5,69 L464,69 C464.107482,69 464.214261,69.0173279 464.316228,69.0513167 L482.316228,75.0513167 C482.72457,75.1874307 483,75.5695696 483,76 L483,87 C483,87.4052239 482.755451,87.7703892 482.38075,87.9246781 L470.054968,93 L478,93 C478.552285,93 479,93.4477153 479,94 L479,107 C479,107.552285 478.552285,108 478,108 L472.710121,108 C471.849572,110.891489 469.171021,113 466,113 C462.828979,113 460.150428,110.891489 459.289879,108 L434.710121,108 C433.849572,110.891489 431.171021,113 428,113 C424.828979,113 422.150428,110.891489 421.289879,108 L418,108 C417.447715,108 417,107.552285 417,107 L417,87 C417,86.832681 417.041983,86.6680365 417.122104,86.5211479 L423.122104,75.5211479 C423.297338,75.1998871 423.634056,75 424,75 L438,75 C438.552285,75 439,75.4477153 439,76 L439,93 L449.712663,93 Z M459,106 C459,102.134007 462.134007,99 466,99 C469.865993,99 473,102.134007 473,106 L477,106 L477,95 L419,95 L419,106 L421,106 C421,102.134007 424.134007,99 428,99 C431.865993,99 435,102.134007 435,106 L459,106 Z M428,111 C430.761424,111 433,108.761424 433,106 C433,103.238576 430.761424,101 428,101 C425.238576,101 423,103.238576 423,106 C423,108.761424 425.238576,111 428,111 Z M466,111 C468.761424,111 471,108.761424 471,106 C471,103.238576 468.761424,101 466,101 C463.238576,101 461,103.238576 461,106 C461,108.761424 463.238576,111 466,111 Z M460,93 L464.802175,93 L481,86.3303073 L481,76.7207592 L463.837722,71 L452.817388,71 L445,76.518156 L445,86.5280756 L452.858765,93 L458,93 L458,83 C458,82.4477153 458.447715,82 459,82 C459.552285,82 460,82.4477153 460,83 L460,93 Z M437,77 L424.593633,77 L419,87.254994 L419,93 L437,93 L437,77 Z" transform="translate(-417 -69)"></path></g><g id="SvgjsG1563" featurekey="0kuQ8p-0" transform="matrix(2.9935640326040445,0,0,2.9935640326040445,100.60514820293974,-17.482412979746673)" fill="#111111"><path d="M4.12 6 c2.28 0 3.26 1.06 3.26 3.22 l0 0.5 c0 1.44 -0.44 2.34 -1.42 2.8 l0 0.04 c1.18 0.46 1.64 1.5 1.64 2.98 l0 1.14 c0 2.16 -1.14 3.32 -3.34 3.32 l-3.46 0 l0 -14 l3.32 0 z M3.98 13.7 l-0.98 0 l0 4.3 l1.26 0 c0.74 0 1.14 -0.34 1.14 -1.38 l0 -1.22 c0 -1.3 -0.42 -1.7 -1.42 -1.7 z M4.06 8 l-1.06 0 l0 3.7 l0.86 0 c0.82 0 1.32 -0.36 1.32 -1.48 l0 -0.78 c0 -1 -0.34 -1.44 -1.12 -1.44 z M11.120000000000001 14 l0 6 l-2.2 0 l0 -14 l2.2 0 l0 6 l2.5 0 l0 -6 l2.24 0 l0 14 l-2.24 0 l0 -6 l-2.5 0 z M22.340000000000003 6 l2.24 14 l-2.22 0 l-0.38 -2.54 l-2.7 0 l-0.38 2.54 l-2.02 0 l2.24 -14 l3.22 0 z M20.600000000000005 8.48 l-1.04 7.08 l2.12 0 l-1.04 -7.08 l-0.04 0 z M32.440000000000005 20 l-2.24 0 c-0.12 -0.36 -0.2 -0.58 -0.2 -1.72 l0 -2.2 c0 -1.3 -0.44 -1.78 -1.44 -1.78 l-0.76 0 l0 5.7 l-2.2 0 l0 -14 l3.32 0 c2.28 0 3.26 1.06 3.26 3.22 l0 1.1 c0 1.44 -0.46 2.36 -1.44 2.82 l0 0.04 c1.1 0.46 1.46 1.5 1.46 2.96 l0 2.16 c0 0.68 0.02 1.18 0.24 1.7 z M28.860000000000003 8 l-1.06 0 l0 4.3 l0.86 0 c0.82 0 1.32 -0.36 1.32 -1.48 l0 -1.38 c0 -1 -0.34 -1.44 -1.12 -1.44 z M38.52 6 l2.24 14 l-2.22 0 l-0.38 -2.54 l-2.7 0 l-0.38 2.54 l-2.02 0 l2.24 -14 l3.22 0 z M36.78 8.48 l-1.04 7.08 l2.12 0 l-1.04 -7.08 l-0.04 0 z M40.38 8 l0 -2 l6.8 0 l0 2 l-2.3 0 l0 12 l-2.2 0 l0 -12 l-2.3 0 z M52.88 6 l1.66 11.42 l0.04 0 l1.66 -11.42 l2.02 0 l-2.16 14 l-3.28 0 l-2.16 -14 l2.22 0 z M63.660000000000004 6 l2.24 14 l-2.22 0 l-0.38 -2.54 l-2.7 0 l-0.38 2.54 l-2.02 0 l2.24 -14 l3.22 0 z M61.92 8.48 l-1.04 7.08 l2.12 0 l-1.04 -7.08 l-0.04 0 z M71.62 20 l-2.7 -10.14 l-0.04 0 l0 10.14 l-1.98 0 l0 -14 l2.76 0 l2.22 8.38 l0.04 0 l0 -8.38 l1.96 0 l0 14 l-2.26 0 z M75.18 9.36 c0 -2.24 1.1 -3.52 3.24 -3.52 s3.24 1.28 3.24 3.52 l0 0.44 l-2.08 0 l0 -0.58 c0 -1 -0.4 -1.38 -1.1 -1.38 s-1.1 0.38 -1.1 1.38 c0 1.02 0.44 1.78 1.88 3.04 c1.84 1.62 2.42 2.78 2.42 4.38 c0 2.24 -1.12 3.52 -3.28 3.52 s-3.28 -1.28 -3.28 -3.52 l0 -0.86 l2.08 0 l0 1 c0 1 0.44 1.36 1.14 1.36 s1.14 -0.36 1.14 -1.36 c0 -1.02 -0.44 -1.78 -1.88 -3.04 c-1.84 -1.62 -2.42 -2.78 -2.42 -4.38 z M85.14000000000001 14 l0 6 l-2.2 0 l0 -14 l2.2 0 l0 6 l2.5 0 l0 -6 l2.24 0 l0 14 l-2.24 0 l0 -6 l-2.5 0 z"></path></g><g id="SvgjsG1564" featurekey="Nh6iBa-0" transform="matrix(0.6241565048435737,0,0,0.6241565048435737,102.61302303842602,49.35492680933785)" fill="#111111"><path d="M5.1 14.780000000000001 l2.08 0 l0 1.86 c0 2.24 -1.12 3.52 -3.28 3.52 s-3.28 -1.28 -3.28 -3.52 l0 -7.28 c0 -2.24 1.12 -3.52 3.28 -3.52 s3.28 1.28 3.28 3.52 l0 1.36 l-2.08 0 l0 -1.5 c0 -1 -0.44 -1.38 -1.14 -1.38 s-1.14 0.38 -1.14 1.38 l0 7.56 c0 1 0.44 1.36 1.14 1.36 s1.14 -0.36 1.14 -1.36 l0 -2 z M19.5679375 9.22 l0 7.56 c0 1 0.44 1.38 1.14 1.38 s1.14 -0.38 1.14 -1.38 l0 -7.56 c0 -1 -0.44 -1.38 -1.14 -1.38 s-1.14 0.38 -1.14 1.38 z M17.3679375 16.64 l0 -7.28 c0 -2.24 1.18 -3.52 3.34 -3.52 s3.34 1.28 3.34 3.52 l0 7.28 c0 2.24 -1.18 3.52 -3.34 3.52 s-3.34 -1.28 -3.34 -3.52 z M34.395875000000004 14 l0 -2 l4 0 l0 2 l-4 0 z M50.9438125 9.22 l0 7.56 c0 1 0.44 1.38 1.14 1.38 s1.14 -0.38 1.14 -1.38 l0 -7.56 c0 -1 -0.44 -1.38 -1.14 -1.38 s-1.14 0.38 -1.14 1.38 z M48.7438125 16.64 l0 -7.28 c0 -2.24 1.18 -3.52 3.34 -3.52 s3.34 1.28 3.34 3.52 l0 7.28 c0 2.24 -1.18 3.52 -3.34 3.52 s-3.34 -1.28 -3.34 -3.52 z M69.11175000000001 6 c2.2 0 3.28 1.22 3.28 3.46 l0 1.82 c0 2.24 -1.08 3.46 -3.28 3.46 l-1.04 0 l0 5.26 l-2.2 0 l0 -14 l3.24 0 z M69.11175000000001 8 l-1.04 0 l0 4.74 l1.04 0 c0.7 0 1.08 -0.32 1.08 -1.32 l0 -2.1 c0 -1 -0.38 -1.32 -1.08 -1.32 z M80.83968750000001 17.88 l2.12 0 l0 2.12 l-2.12 0 l0 -2.12 z M105.71556250000002 20 l0 -14 l2.2 0 l0 12 l3.62 0 l0 2 l-5.82 0 z M121.54350000000002 15.54 c0 -1.42 0.44 -2.44 1.52 -2.92 l0 -0.04 c-1.04 -0.44 -1.52 -1.36 -1.52 -2.86 l0 -0.26 c0 -2.24 1.08 -3.46 3.28 -3.46 l2.52 0 l0 2 l-2.48 0 c-0.7 0 -1.12 0.36 -1.12 1.36 l0 0.86 c0 1.12 0.5 1.48 1.32 1.48 l0.96 0 l0 -1.56 l2.2 0 l0 1.56 l0.58 0 l0 2 l-0.58 0 l0 4.6 c0 0.68 0.02 1.18 0.24 1.7 l-2.24 0 c-0.1 -0.28 -0.16 -0.48 -0.2 -1.1 l-0.04 0 c-0.38 0.82 -1.02 1.26 -2 1.26 c-1.62 0 -2.44 -1.14 -2.44 -3.2 l0 -1.42 z M123.74350000000003 16.78 c0 1 0.44 1.38 1.14 1.38 c0.66 0 1.1 -0.34 1.14 -1.22 l0 -3.24 l-0.84 0 c-1 0 -1.44 0.48 -1.44 1.78 l0 1.3 z M143.13143750000003 14.780000000000001 l2.08 0 l0 1.86 c0 2.24 -1.12 3.52 -3.28 3.52 s-3.28 -1.28 -3.28 -3.52 l0 -7.28 c0 -2.24 1.12 -3.52 3.28 -3.52 s3.28 1.28 3.28 3.52 l0 1.36 l-2.08 0 l0 -1.5 c0 -1 -0.44 -1.38 -1.14 -1.38 s-1.14 0.38 -1.14 1.38 l0 7.56 c0 1 0.44 1.36 1.14 1.36 s1.14 -0.36 1.14 -1.36 l0 -2 z M167.42731250000006 9.36 c0 -2.24 1.1 -3.52 3.24 -3.52 s3.24 1.28 3.24 3.52 l0 0.44 l-2.08 0 l0 -0.58 c0 -1 -0.4 -1.38 -1.1 -1.38 s-1.1 0.38 -1.1 1.38 c0 1.02 0.44 1.78 1.88 3.04 c1.84 1.62 2.42 2.78 2.42 4.38 c0 2.24 -1.12 3.52 -3.28 3.52 s-3.28 -1.28 -3.28 -3.52 l0 -0.86 l2.08 0 l0 1 c0 1 0.44 1.36 1.14 1.36 s1.14 -0.36 1.14 -1.36 c0 -1.02 -0.44 -1.78 -1.88 -3.04 c-1.84 -1.62 -2.42 -2.78 -2.42 -4.38 z M186.23525000000004 9.22 l0 7.56 c0 1 0.44 1.38 1.14 1.38 s1.14 -0.38 1.14 -1.38 l0 -7.56 c0 -1 -0.44 -1.38 -1.14 -1.38 s-1.14 0.38 -1.14 1.38 z M184.03525000000005 16.64 l0 -7.28 c0 -2.24 1.18 -3.52 3.34 -3.52 s3.34 1.28 3.34 3.52 l0 7.28 c0 2.24 -1.18 3.52 -3.34 3.52 s-3.34 -1.28 -3.34 -3.52 z M205.46318750000003 14.780000000000001 l2.08 0 l0 1.86 c0 2.24 -1.12 3.52 -3.28 3.52 s-3.28 -1.28 -3.28 -3.52 l0 -7.28 c0 -2.24 1.12 -3.52 3.28 -3.52 s3.28 1.28 3.28 3.52 l0 1.36 l-2.08 0 l0 -1.5 c0 -1 -0.44 -1.38 -1.14 -1.38 s-1.14 0.38 -1.14 1.38 l0 7.56 c0 1 0.44 1.36 1.14 1.36 s1.14 -0.36 1.14 -1.36 l0 -2 z M217.91112500000006 20 l0 -14 l2.2 0 l0 14 l-2.2 0 z M232.93906250000003 8 l0 3.9 l3.02 0 l0 2 l-3.02 0 l0 4.1 l3.8 0 l0 2 l-6 0 l0 -14 l6 0 l0 2 l-3.8 0 z M246.48700000000002 8 l0 -2 l6.8 0 l0 2 l-2.3 0 l0 12 l-2.2 0 l0 -12 l-2.3 0 z M265.3349375 20 l0 -4.64 l-2.78 -9.36 l2.3 0 l1.66 6.38 l0.04 0 l1.66 -6.38 l2.1 0 l-2.78 9.36 l0 4.64 l-2.2 0 z M292.3508125 20 l0 -14 l2.2 0 l0 12 l3.62 0 l0 2 l-5.82 0 z M306.51875 8 l0 -2 l6.8 0 l0 2 l-2.3 0 l0 12 l-2.2 0 l0 -12 l-2.3 0 z M323.3066875 20 l0 -14 l3.48 0 c2.2 0 3.28 1.22 3.28 3.46 l0 7.08 c0 2.24 -1.08 3.46 -3.28 3.46 l-3.48 0 z M326.7466875 8 l-1.24 0 l0 10 l1.24 0 c0.7 0 1.12 -0.36 1.12 -1.36 l0 -7.28 c0 -1 -0.42 -1.36 -1.12 -1.36 z M340.294625 17.88 l2.12 0 l0 2.12 l-2.12 0 l0 -2.12 z"></path></g></svg>
